<?xml version="1.0" standalone="no"?>
<!DOCTYPE svg PUBLIC "-//W3C//DTD SVG 20010904//EN"
 "http://www.w3.org/TR/2001/REC-SVG-20010904/DTD/svg10.dtd">
<svg version="1.0" xmlns="http://www.w3.org/2000/svg"
 width="1200.000000pt" height="1200.000000pt" viewBox="0 0 1200.000000 1200.000000"
 preserveAspectRatio="xMidYMid meet">
<metadata>
Created by potrace 1.14, written by Peter Selinger 2001-2017
</metadata>
<g transform="translate(0.000000,1200.000000) scale(0.100000,-0.100000)"
fill="#000000" stroke="none">
<path d="M5697 11994 c-1 -1 -45 -5 -97 -8 -125 -8 -220 -16 -245 -21 -11 -2
-35 -4 -54 -4 l-33 -1 6 -67 c4 -37 8 -68 10 -70 2 -2 41 0 87 6 46 5 91 9 99
9 8 0 47 3 85 6 39 4 104 9 145 11 41 2 79 4 83 4 4 1 7 31 5 68 l-3 68 -43 0
c-24 0 -44 0 -45 -1z"/>
<path d="M6309 11946 c-1 -25 -2 -56 -2 -68 -2 -24 -3 -23 123 -32 129 -9 209
-16 275 -27 33 -5 71 -9 85 -9 27 0 30 9 34 100 l1 35 -55 7 c-30 3 -86 10
-125 14 -38 3 -83 8 -100 10 -16 1 -76 6 -132 9 l-103 7 -1 -46z"/>
<path d="M10445 11923 c-168 -21 -308 -63 -460 -138 -462 -230 -750 -706 -739
-1222 5 -280 96 -548 258 -768 328 -442 872 -640 1404 -510 412 100 745 385
917 782 39 91 80 238 93 338 12 86 13 299 2 357 -5 24 -14 72 -21 108 -61 321
-289 653 -580 842 -220 143 -463 216 -724 215 -66 0 -133 -2 -150 -4z"/>
<path d="M4660 11851 c-41 -10 -138 -35 -215 -56 -77 -21 -150 -40 -163 -43
-13 -2 -26 -10 -28 -17 -7 -17 25 -125 36 -125 5 0 29 6 52 14 56 19 312 85
357 92 74 12 80 18 70 66 -17 81 -19 88 -27 87 -4 0 -41 -9 -82 -18z"/>
<path d="M7345 11836 c-7 -25 -25 -106 -25 -114 0 -6 24 -15 53 -22 69 -16
338 -89 357 -97 8 -3 20 -7 25 -9 6 -2 19 -6 31 -9 17 -5 23 0 37 37 33 92 38
83 -60 114 -224 69 -414 114 -418 100z"/>
<path d="M3665 11529 c-82 -35 -101 -43 -262 -120 -68 -32 -123 -61 -123 -65
0 -15 53 -114 61 -114 4 0 57 24 116 53 95 46 205 95 310 139 36 14 36 16 2
96 -10 23 -22 42 -26 41 -4 0 -39 -14 -78 -30z"/>
<path d="M8324 11483 c-38 -90 -39 -82 14 -105 63 -27 328 -154 373 -178 29
-16 39 -17 46 -7 18 24 57 106 53 110 -6 6 -320 158 -380 184 -86 38 -87 38
-106 -4z"/>
<path d="M2725 11027 c-49 -32 -142 -95 -205 -140 -63 -45 -119 -85 -124 -89
-5 -3 9 -31 33 -61 l42 -55 125 89 c68 50 163 115 210 145 l85 56 -23 36 c-52
87 -42 86 -143 19z"/>
<path d="M5867 10584 c-1 -1 -63 -5 -137 -8 -74 -4 -148 -8 -165 -10 -16 -2
-57 -7 -90 -10 -33 -4 -73 -9 -90 -11 -16 -3 -48 -7 -70 -10 -343 -48 -795
-177 -1137 -325 -92 -40 -363 -176 -443 -222 -116 -67 -141 -83 -285 -179
-430 -287 -843 -681 -1137 -1084 -40 -55 -76 -104 -81 -110 -19 -24 -143 -218
-195 -307 -307 -524 -531 -1193 -592 -1768 -3 -30 -8 -68 -10 -85 -29 -232
-24 -745 10 -1000 10 -75 27 -190 31 -210 2 -10 6 -37 9 -60 5 -32 58 -277 69
-320 141 -527 334 -961 624 -1400 174 -262 335 -459 567 -690 206 -207 243
-240 404 -366 69 -55 131 -103 136 -107 29 -23 241 -166 311 -210 272 -169
662 -351 961 -447 60 -19 122 -39 138 -44 30 -10 217 -60 245 -66 8 -2 38 -9
65 -15 28 -6 61 -14 75 -16 25 -4 54 -10 100 -19 88 -18 363 -53 500 -62 188
-14 693 -6 788 11 9 2 44 7 77 10 66 8 109 14 170 22 44 7 45 7 160 30 44 8
91 18 105 20 78 15 353 92 483 136 780 262 1516 761 2027 1373 41 50 78 92 81
95 20 17 186 247 264 365 391 594 635 1262 720 1975 3 25 7 62 10 83 28 243
24 772 -9 982 -3 22 -8 63 -11 90 -24 227 -111 593 -204 867 -170 494 -430
969 -751 1369 -236 295 -509 564 -795 783 -55 42 -104 80 -110 84 -48 37 -177
122 -351 229 -275 171 -705 356 -1059 458 -145 42 -431 107 -525 120 -25 3
-72 10 -105 15 -186 28 -381 42 -613 44 -89 1 -164 1 -165 0z"/>
<path d="M1790 10272 l-182 -177 52 -49 52 -48 117 118 c64 66 145 145 179
176 34 32 62 61 62 65 -1 13 -77 93 -88 93 -5 0 -92 -80 -192 -178z"/>
<path d="M1237 9648 c-34 -42 -183 -250 -241 -336 -16 -23 -27 -44 -25 -46 2
-2 28 -20 57 -39 l54 -35 61 91 c34 51 66 97 72 104 5 6 21 28 35 48 14 19 48
66 77 104 l52 68 -42 33 c-23 18 -47 37 -54 42 -7 6 -23 -6 -46 -34z"/>
<path d="M623 8662 c-80 -162 -143 -300 -143 -312 0 -4 24 -18 52 -31 29 -13
56 -25 61 -27 4 -2 17 18 28 45 12 26 61 131 110 232 49 101 88 185 87 186 -8
7 -109 55 -115 55 -4 0 -40 -66 -80 -148z"/>
<path d="M11283 8692 c-29 -14 -53 -30 -53 -34 0 -5 24 -59 54 -121 30 -62 75
-161 101 -222 26 -60 49 -112 51 -114 1 -2 30 7 63 20 52 20 60 27 55 44 -22
72 -199 455 -211 454 -4 0 -32 -12 -60 -27z"/>
<path d="M261 7753 c-68 -223 -113 -406 -98 -402 1 0 14 -4 28 -9 14 -6 41
-13 61 -16 l35 -5 28 112 c15 62 45 170 66 242 21 71 35 133 31 136 -8 7 -101
39 -113 39 -5 0 -22 -44 -38 -97z"/>
<path d="M11665 7733 c-27 -8 -51 -16 -53 -18 -2 -1 15 -67 36 -146 22 -79 50
-191 63 -247 l23 -104 30 6 c84 17 107 27 102 44 -5 15 -21 87 -31 132 -6 27
-56 214 -77 283 -11 37 -25 67 -31 66 -7 -1 -34 -8 -62 -16z"/>
<path d="M59 6828 c-5 -18 -14 -81 -24 -178 -3 -30 -8 -72 -10 -92 -2 -21 -7
-84 -11 -142 l-6 -104 62 -4 c34 -1 65 -1 69 2 4 3 8 23 9 45 6 101 14 186 22
260 5 44 12 107 15 141 l6 61 -47 7 c-48 6 -83 8 -85 4z"/>
<path d="M11899 6726 c-2 -2 -20 -6 -39 -8 -40 -5 -40 -4 -26 -148 9 -94 15
-173 20 -272 2 -42 6 -81 10 -86 3 -5 18 -8 33 -6 15 1 45 2 65 3 l36 1 -3 53
c-2 28 -6 90 -9 137 -8 114 -18 232 -22 250 -1 8 -3 30 -3 48 -1 28 -4 32 -29
32 -16 0 -31 -2 -33 -4z"/>
<path d="M55 5790 l-51 -5 2 -40 c3 -88 15 -265 24 -350 5 -49 10 -98 10 -108
0 -16 6 -18 43 -13 23 3 55 5 70 5 28 1 28 1 22 54 -9 65 -11 96 -20 227 -3
58 -8 123 -10 145 -2 22 -4 51 -4 65 -1 28 -3 28 -86 20z"/>
<path d="M11849 5628 c-1 -35 -2 -74 -4 -88 -1 -14 -6 -62 -9 -107 -4 -46 -9
-91 -10 -100 -2 -10 -7 -48 -11 -84 l-7 -67 62 -7 c34 -4 66 -3 70 1 5 5 11
38 15 74 3 36 8 83 11 105 7 53 11 110 19 231 l7 101 -71 2 -71 2 -1 -63z"/>
<path d="M197 4765 c-32 -7 -59 -14 -61 -16 -2 -2 3 -33 10 -69 19 -85 20 -89
39 -163 9 -34 18 -69 20 -78 2 -10 16 -57 30 -106 l27 -89 62 19 c33 11 62 21
64 22 2 2 -15 68 -37 146 -22 79 -50 190 -63 246 -13 57 -25 102 -28 102 -3
-1 -31 -7 -63 -14z"/>
<path d="M11685 4568 c-15 -62 -45 -171 -66 -243 -21 -71 -39 -132 -39 -135 0
-7 80 -30 114 -33 15 -2 22 8 31 43 7 25 29 100 49 167 20 68 44 159 55 202
l18 80 -51 11 c-28 7 -58 14 -67 16 -13 4 -21 -17 -44 -108z"/>
<path d="M500 3778 c-30 -12 -57 -23 -59 -24 -4 -4 12 -48 45 -121 13 -28 24
-54 24 -57 0 -12 139 -296 145 -296 13 0 115 54 115 60 0 4 -27 66 -61 136
-84 178 -123 265 -134 302 -8 26 -6 26 -75 0z"/>
<path d="M11362 3628 c-20 -46 -69 -150 -110 -232 -40 -82 -71 -149 -70 -151
2 -1 29 -16 61 -33 l57 -30 84 171 c101 206 140 296 134 302 -2 2 -30 16 -61
30 l-58 25 -37 -82z"/>
<path d="M967 2856 c-27 -19 -49 -36 -50 -38 -3 -9 249 -381 288 -426 2 -2 28
15 58 38 l55 41 -89 125 c-50 68 -114 163 -144 209 -31 47 -58 85 -63 84 -4 0
-29 -15 -55 -33z"/>
<path d="M10850 2708 c-35 -51 -100 -143 -146 -205 l-83 -112 42 -33 c23 -18
45 -37 48 -42 4 -4 12 -5 18 -1 25 15 308 412 300 419 -11 10 -104 66 -110 66
-4 0 -35 -42 -69 -92z"/>
<path d="M1587 2026 l-48 -43 184 -187 183 -187 48 51 49 52 -109 107 c-60 59
-139 140 -177 179 -37 40 -71 72 -75 72 -4 -1 -29 -20 -55 -44z"/>
<path d="M10169 1882 c-64 -64 -144 -143 -178 -175 -33 -32 -61 -61 -61 -65 0
-4 20 -28 43 -55 l44 -48 176 171 c96 95 178 179 182 188 4 10 -8 30 -37 59
-24 23 -45 42 -48 42 -3 0 -57 -52 -121 -117z"/>
<path d="M2351 1328 c-22 -29 -37 -56 -34 -61 14 -22 411 -303 417 -295 2 2
19 27 39 56 l35 54 -111 75 c-62 42 -130 90 -152 107 -22 18 -51 39 -65 48
-14 9 -38 28 -54 42 -16 14 -30 26 -32 26 -2 0 -21 -23 -43 -52z"/>
<path d="M9440 1254 c-41 -30 -132 -94 -202 -140 -71 -47 -128 -88 -128 -90 0
-2 16 -29 36 -59 l36 -54 87 57 c47 31 140 95 206 142 65 47 123 88 128 91 11
8 -62 109 -78 109 -5 -1 -44 -26 -85 -56z"/>
<path d="M3243 808 c-6 -7 -21 -33 -33 -57 -22 -43 -22 -45 -4 -59 43 -32 441
-218 450 -210 2 2 15 30 29 61 l25 57 -58 26 c-44 20 -360 174 -393 191 -3 2
-11 -2 -16 -9z"/>
<path d="M8590 740 c-46 -24 -266 -124 -362 -163 -16 -7 -28 -15 -28 -19 0
-13 49 -118 55 -118 22 0 465 204 465 214 0 16 -56 116 -65 116 -5 -1 -35 -14
-65 -30z"/>
<path d="M4185 408 c-20 -59 -35 -104 -35 -110 0 -9 188 -69 310 -98 19 -5 70
-17 113 -28 l77 -19 6 26 c3 14 10 43 16 65 5 21 8 39 6 41 -2 2 -59 17 -128
35 -69 17 -170 45 -225 61 -55 17 -108 33 -118 35 -9 3 -19 -1 -22 -8z"/>
<path d="M7650 373 c-25 -8 -53 -16 -62 -18 -9 -2 -51 -13 -93 -25 -42 -12
-86 -23 -98 -26 -33 -6 -172 -37 -175 -40 -1 -1 2 -23 9 -50 6 -27 12 -56 14
-64 1 -10 12 -14 31 -12 59 6 452 109 467 122 12 10 -23 130 -37 129 -6 -1
-31 -8 -56 -16z"/>
<path d="M5176 144 c-9 -69 -8 -91 7 -91 6 0 35 -3 62 -6 132 -16 201 -22 358
-33 l87 -6 0 71 0 71 -57 1 c-32 1 -69 2 -83 4 -14 2 -59 6 -100 9 -41 3 -88
8 -105 10 -16 2 -60 7 -96 11 l-66 7 -7 -48z"/>
<path d="M6669 176 c-2 -2 -40 -7 -84 -10 -44 -3 -111 -8 -150 -11 -105 -9
-177 -14 -205 -14 -23 -1 -25 -4 -23 -43 1 -24 2 -55 2 -69 1 -25 3 -26 49
-24 191 11 268 17 347 25 50 5 98 10 108 10 16 0 18 6 12 62 -4 34 -9 66 -11
70 -5 8 -37 11 -45 4z"/>
</g>
</svg>
